<mxfile host="app.diagrams.net" agent="Mozilla/5.0 (Windows NT 10.0; Win64; x64) AppleWebKit/537.36 (KHTML, like Gecko) Chrome/130.0.0.0 Safari/537.36 Edg/130.0.0.0" version="24.8.4">
  <diagram name="Page-0" id="Page-0">
    <mxGraphModel dx="145.22" dy="389" grid="1" gridSize="10" guides="1" tooltips="1" connect="1" arrows="1" fold="1" page="1" pageScale="1" pageWidth="721.78" pageHeight="686.86" math="0" shadow="0">
      <root>
        <mxCell id="0" />
        <mxCell id="1" parent="0" />
        <mxCell id="Pmls4Evv2OvvakFKcnla-3" value="" style="rounded=0;whiteSpace=wrap;html=1;" parent="1" vertex="1">
          <mxGeometry x="910" y="110" width="290" height="590" as="geometry" />
        </mxCell>
        <mxCell id="Pmls4Evv2OvvakFKcnla-4" value="Register" style="ellipse;whiteSpace=wrap;html=1;" parent="1" vertex="1">
          <mxGeometry x="995" y="120" width="120" height="40" as="geometry" />
        </mxCell>
        <mxCell id="Pmls4Evv2OvvakFKcnla-6" value="Manage Bookings" style="ellipse;whiteSpace=wrap;html=1;" parent="1" vertex="1">
          <mxGeometry x="982.5" y="627" width="155" height="53" as="geometry" />
        </mxCell>
        <mxCell id="Pmls4Evv2OvvakFKcnla-7" value="Add/Update/Delete room type" style="ellipse;whiteSpace=wrap;html=1;" parent="1" vertex="1">
          <mxGeometry x="980" y="360" width="160" height="80" as="geometry" />
        </mxCell>
        <mxCell id="Pmls4Evv2OvvakFKcnla-8" value="Book Rooms" style="ellipse;whiteSpace=wrap;html=1;" parent="1" vertex="1">
          <mxGeometry x="1000" y="293" width="120" height="50" as="geometry" />
        </mxCell>
        <mxCell id="Pmls4Evv2OvvakFKcnla-9" value="Login" style="ellipse;whiteSpace=wrap;html=1;" parent="1" vertex="1">
          <mxGeometry x="995" y="180" width="120" height="40" as="geometry" />
        </mxCell>
        <mxCell id="Pmls4Evv2OvvakFKcnla-10" value="Add/Update/Delete room price" style="ellipse;whiteSpace=wrap;html=1;" parent="1" vertex="1">
          <mxGeometry x="977.5" y="460" width="160" height="80" as="geometry" />
        </mxCell>
        <mxCell id="Pmls4Evv2OvvakFKcnla-12" value="Search Rooms" style="ellipse;whiteSpace=wrap;html=1;" parent="1" vertex="1">
          <mxGeometry x="995" y="240" width="125" height="40" as="geometry" />
        </mxCell>
        <mxCell id="Pmls4Evv2OvvakFKcnla-13" value="User" style="shape=umlActor;verticalLabelPosition=bottom;verticalAlign=top;html=1;outlineConnect=0;" parent="1" vertex="1">
          <mxGeometry x="810" y="288" width="30" height="60" as="geometry" />
        </mxCell>
        <mxCell id="Pmls4Evv2OvvakFKcnla-14" value="Admin" style="shape=umlActor;verticalLabelPosition=bottom;verticalAlign=top;html=1;outlineConnect=0;" parent="1" vertex="1">
          <mxGeometry x="1370" y="470" width="30" height="60" as="geometry" />
        </mxCell>
        <mxCell id="Pmls4Evv2OvvakFKcnla-15" value="" style="endArrow=none;html=1;rounded=0;entryX=0;entryY=0.5;entryDx=0;entryDy=0;exitX=0.5;exitY=0.5;exitDx=0;exitDy=0;exitPerimeter=0;" parent="1" source="Pmls4Evv2OvvakFKcnla-13" target="Pmls4Evv2OvvakFKcnla-4" edge="1">
          <mxGeometry width="50" height="50" relative="1" as="geometry">
            <mxPoint x="870" y="340" as="sourcePoint" />
            <mxPoint x="920" y="290" as="targetPoint" />
          </mxGeometry>
        </mxCell>
        <mxCell id="Pmls4Evv2OvvakFKcnla-16" value="" style="endArrow=none;html=1;rounded=0;exitX=0.5;exitY=0.5;exitDx=0;exitDy=0;exitPerimeter=0;entryX=0;entryY=0.5;entryDx=0;entryDy=0;" parent="1" source="Pmls4Evv2OvvakFKcnla-13" target="Pmls4Evv2OvvakFKcnla-9" edge="1">
          <mxGeometry width="50" height="50" relative="1" as="geometry">
            <mxPoint x="880" y="350" as="sourcePoint" />
            <mxPoint x="930" y="300" as="targetPoint" />
          </mxGeometry>
        </mxCell>
        <mxCell id="Pmls4Evv2OvvakFKcnla-17" value="" style="endArrow=none;html=1;rounded=0;exitX=0.5;exitY=0.5;exitDx=0;exitDy=0;exitPerimeter=0;entryX=0;entryY=0.5;entryDx=0;entryDy=0;" parent="1" source="Pmls4Evv2OvvakFKcnla-13" target="Pmls4Evv2OvvakFKcnla-12" edge="1">
          <mxGeometry width="50" height="50" relative="1" as="geometry">
            <mxPoint x="870" y="335" as="sourcePoint" />
            <mxPoint x="920" y="285" as="targetPoint" />
          </mxGeometry>
        </mxCell>
        <mxCell id="Pmls4Evv2OvvakFKcnla-18" value="" style="endArrow=none;html=1;rounded=0;exitX=0.5;exitY=0.5;exitDx=0;exitDy=0;exitPerimeter=0;entryX=0;entryY=0.5;entryDx=0;entryDy=0;" parent="1" source="Pmls4Evv2OvvakFKcnla-13" target="Pmls4Evv2OvvakFKcnla-8" edge="1">
          <mxGeometry width="50" height="50" relative="1" as="geometry">
            <mxPoint x="900" y="370" as="sourcePoint" />
            <mxPoint x="950" y="320" as="targetPoint" />
          </mxGeometry>
        </mxCell>
        <mxCell id="Pmls4Evv2OvvakFKcnla-19" value="" style="endArrow=none;html=1;rounded=0;entryX=0.5;entryY=0.5;entryDx=0;entryDy=0;entryPerimeter=0;exitX=1;exitY=0.5;exitDx=0;exitDy=0;" parent="1" source="Pmls4Evv2OvvakFKcnla-7" target="Pmls4Evv2OvvakFKcnla-14" edge="1">
          <mxGeometry width="50" height="50" relative="1" as="geometry">
            <mxPoint x="910" y="380" as="sourcePoint" />
            <mxPoint x="960" y="330" as="targetPoint" />
          </mxGeometry>
        </mxCell>
        <mxCell id="Pmls4Evv2OvvakFKcnla-20" value="" style="endArrow=none;html=1;rounded=0;entryX=0.5;entryY=0.5;entryDx=0;entryDy=0;entryPerimeter=0;exitX=1;exitY=0.5;exitDx=0;exitDy=0;" parent="1" target="Pmls4Evv2OvvakFKcnla-14" edge="1">
          <mxGeometry width="50" height="50" relative="1" as="geometry">
            <mxPoint x="1147.5" y="500" as="sourcePoint" />
            <mxPoint x="970" y="340" as="targetPoint" />
          </mxGeometry>
        </mxCell>
        <mxCell id="Pmls4Evv2OvvakFKcnla-21" value="" style="endArrow=none;html=1;rounded=0;exitX=0.5;exitY=0.5;exitDx=0;exitDy=0;exitPerimeter=0;entryX=1;entryY=0.5;entryDx=0;entryDy=0;" parent="1" source="Pmls4Evv2OvvakFKcnla-14" target="Pmls4Evv2OvvakFKcnla-6" edge="1">
          <mxGeometry width="50" height="50" relative="1" as="geometry">
            <mxPoint x="930" y="400" as="sourcePoint" />
            <mxPoint x="980" y="350" as="targetPoint" />
          </mxGeometry>
        </mxCell>
        <mxCell id="Pmls4Evv2OvvakFKcnla-23" value="" style="endArrow=none;html=1;rounded=0;exitX=0.5;exitY=0.5;exitDx=0;exitDy=0;exitPerimeter=0;entryX=1;entryY=0.5;entryDx=0;entryDy=0;" parent="1" source="Pmls4Evv2OvvakFKcnla-14" target="Pmls4Evv2OvvakFKcnla-10" edge="1">
          <mxGeometry width="50" height="50" relative="1" as="geometry">
            <mxPoint x="940" y="410" as="sourcePoint" />
            <mxPoint x="990" y="360" as="targetPoint" />
          </mxGeometry>
        </mxCell>
        <mxCell id="Pmls4Evv2OvvakFKcnla-25" value="Hotel Reservation System" style="text;html=1;strokeColor=none;fillColor=none;align=center;verticalAlign=middle;whiteSpace=wrap;rounded=0;" parent="1" vertex="1">
          <mxGeometry x="965.5" y="70" width="177" height="30" as="geometry" />
        </mxCell>
        <mxCell id="g2r_6g-J2cVkRIOtpRQZ-1" value="Manage Users" style="ellipse;whiteSpace=wrap;html=1;" vertex="1" parent="1">
          <mxGeometry x="972.5" y="560" width="170" height="50" as="geometry" />
        </mxCell>
        <mxCell id="g2r_6g-J2cVkRIOtpRQZ-2" value="" style="endArrow=none;html=1;rounded=0;entryX=1;entryY=0.5;entryDx=0;entryDy=0;exitX=0.5;exitY=0.5;exitDx=0;exitDy=0;exitPerimeter=0;" edge="1" parent="1" source="Pmls4Evv2OvvakFKcnla-14" target="g2r_6g-J2cVkRIOtpRQZ-1">
          <mxGeometry width="50" height="50" relative="1" as="geometry">
            <mxPoint x="1380" y="500" as="sourcePoint" />
            <mxPoint x="1148" y="664" as="targetPoint" />
          </mxGeometry>
        </mxCell>
      </root>
    </mxGraphModel>
  </diagram>
</mxfile>
